<svg xmlns="http://www.w3.org/2000/svg" viewBox="0 0 100 100">
  <defs>
    <linearGradient id="grad1" x1="0%" y1="0%" x2="100%" y2="0%">
      <stop offset="0%" style="stop-color:#4A9FB8;stop-opacity:1" />
      <stop offset="100%" style="stop-color:#1E3A5F;stop-opacity:1" />
    </linearGradient>
  </defs>

  <!-- Geometric hexagonal shape representing automation/AI -->
  <!-- Top curved sections -->
  <path d="M 35 15 Q 35 25 40 30 L 40 45 L 30 50 L 30 30 Q 30 20 35 15 Z"
        fill="#4A9FB8"/>
  <path d="M 65 15 Q 65 25 60 30 L 60 45 L 70 50 L 70 30 Q 70 20 65 15 Z"
        fill="#1E3A5F"/>

  <!-- Bottom sections -->
  <path d="M 30 50 L 40 55 L 40 80 L 35 85 L 30 82 Z"
        fill="#2B6A8F" stroke="#fff" stroke-width="1"/>
  <path d="M 70 50 L 60 55 L 60 80 L 65 85 L 70 82 Z"
        fill="#1E3A5F" stroke="#fff" stroke-width="1"/>

  <!-- Center pillar -->
  <path d="M 45 35 L 55 35 L 55 75 L 45 75 Z"
        fill="url(#grad1)" stroke="#fff" stroke-width="1"/>
</svg>
